<svg xmlns:xlink="http://www.w3.org/1999/xlink" width="139" height="30" viewBox="0 0 139 30" fill="none" xmlns="http://www.w3.org/2000/svg">
<path d="M66.8375 1.43054H59.9539C59.776 1.43054 59.6243 1.56237 59.6007 1.73897L56.2304 27.026C56.2155 27.026 56.2205 27.026 56.2068 27.026L53.2071 1.74394C53.186 1.56486 53.0342 1.43054 52.8539 1.43054H40.5555C40.3814 1.43054 40.2222 1.57232 40.2023 1.74394C40.2023 1.74394 37.2076 26.9763 37.1865 26.975L33.8125 1.73897C33.7888 1.56237 33.6383 1.43054 33.4605 1.43054H26.5744C26.358 1.43054 26.1914 1.62206 26.2225 1.83597C26.7125 5.24853 30.125 29.0221 30.125 29.0221C30.1499 29.1974 30.3004 29.3267 30.477 29.3267H43.5564C43.738 29.3267 43.891 29.19 43.9096 29.0096L46.4317 5.73853C46.4665 5.41269 46.9404 5.41145 46.9764 5.73853C47.6816 12.1893 49.4961 29.0071 49.4961 29.0071C49.516 29.1875 49.6677 29.3243 49.8493 29.3243H62.9299C63.1065 29.3243 63.257 29.1937 63.2819 29.0196L67.1894 1.83846C67.2205 1.62455 67.0538 1.43179 66.8375 1.43179V1.43054Z" fill="#C0CAC9"></path>
<path d="M24.3679 1.43054H0.994843C0.798347 1.43054 0.63916 1.58973 0.63916 1.78622V7.67986C0.63916 7.87636 0.798347 8.03554 0.994843 8.03554H8.26519C8.43309 8.03554 8.56864 8.1711 8.56864 8.33899V28.9723C8.56864 29.1688 8.72783 29.328 8.92433 29.328H16.4136C16.6101 29.328 16.7692 29.1688 16.7692 28.9723V8.33526C16.7692 8.16737 16.9048 8.03181 17.0727 8.03181H24.3679C24.5644 8.03181 24.7236 7.87262 24.7236 7.67613V1.78622C24.7236 1.58973 24.5644 1.43054 24.3679 1.43054Z" fill="#C0CAC9"></path>
<path d="M87.2565 9.04783C88.0177 8.02929 89.0101 7.32663 90.2575 7.05178C91.8307 6.70729 93.343 6.86524 94.7296 7.74822C95.6823 8.35512 96.3227 9.22443 96.768 10.2467C96.8587 10.4544 96.9694 10.7678 97.0602 11.0314C97.0988 11.1421 97.202 11.2155 97.3189 11.2155C99.8547 11.213 102.67 11.2143 105.222 11.213C105.401 11.213 105.532 11.0426 105.486 10.8698C105.415 10.5974 105.344 10.3263 105.263 10.0639C104.767 8.43969 104.068 6.91498 103.006 5.57433C101.353 3.4875 99.2353 2.10208 96.6846 1.35713C94.8888 0.832314 93.0544 0.638305 91.189 0.676858C89.515 0.71168 87.8759 0.954191 86.2977 1.51383C81.8691 3.08331 79.0373 6.15263 77.8048 10.6745C77.4181 12.0935 77.2688 13.5399 77.2788 14.9999C77.2688 16.4587 77.4181 17.9063 77.8048 19.3253C79.0385 23.8472 81.8703 26.9165 86.2977 28.486C87.8771 29.0457 89.515 29.2882 91.189 29.323C93.0544 29.3615 94.8888 29.1675 96.6846 28.6427C99.2353 27.8978 101.353 26.5123 103.006 24.4255C104.068 23.0849 104.767 21.5602 105.263 19.9359C105.344 19.6735 105.415 19.4024 105.486 19.1301C105.532 18.956 105.401 18.7868 105.222 18.7868C102.67 18.7868 99.8547 18.7868 97.3189 18.7843C97.202 18.7843 97.0988 18.8577 97.0602 18.9684C96.9694 19.2333 96.8587 19.5467 96.768 19.7531C96.3227 20.7742 95.6823 21.6447 94.7296 22.2516C93.343 23.1346 91.8307 23.2925 90.2575 22.9481C89.0088 22.6745 88.0177 21.9706 87.2565 20.952C86.2256 19.5703 85.8164 17.9697 85.6721 16.2846C85.6348 15.8555 85.6174 15.4277 85.6162 14.9987C85.6162 14.5709 85.6348 14.1418 85.6721 13.7127C85.8152 12.0276 86.2243 10.427 87.2565 9.04535V9.04783Z" fill="#C0CAC9"></path>
<path d="M76.3198 1.43054H68.8542C68.6578 1.43054 68.4985 1.58979 68.4985 1.78622V28.9723C68.4985 29.1687 68.6578 29.328 68.8542 29.328H76.3198C76.5163 29.328 76.6755 29.1687 76.6755 28.9723V1.78622C76.6755 1.58979 76.5163 1.43054 76.3198 1.43054Z" fill="#C0CAC9"></path>
<path d="M126.582 1.43054H106.593C106.396 1.43054 106.237 1.58973 106.237 1.78622V28.9723C106.237 29.1688 106.396 29.328 106.593 29.328H126.581C126.777 29.328 126.937 29.1688 126.937 28.9723V23.07C126.937 22.8735 126.777 22.7143 126.581 22.7143H114.723C114.555 22.7143 114.419 22.5787 114.419 22.4108V18.7309C114.419 18.563 114.555 18.4274 114.723 18.4274H126.059C126.255 18.4274 126.414 18.2683 126.414 18.0718V12.1669C126.414 11.9704 126.255 11.8112 126.059 11.8112H114.724C114.556 11.8112 114.42 11.6757 114.42 11.5078V8.33526C114.42 8.16737 114.556 8.03181 114.724 8.03181H126.581C126.777 8.03181 126.937 7.87262 126.937 7.67613V1.78622C126.937 1.58973 126.777 1.43054 126.581 1.43054H126.582Z" fill="#C0CAC9"></path>
<path d="M135.06 1.43054C133.238 1.43054 131.759 2.91794 131.759 4.73118C131.759 6.54441 133.238 8.03181 135.06 8.03181C136.882 8.03181 138.361 6.54441 138.361 4.73118C138.361 2.91794 136.873 1.43054 135.06 1.43054ZM135.06 7.30677C133.637 7.30677 132.484 6.14396 132.484 4.73118C132.484 3.3184 133.637 2.14564 135.06 2.14564C136.483 2.14564 137.645 3.30845 137.645 4.73118C137.645 6.15391 136.483 7.30677 135.06 7.30677Z" fill="#C0CAC9"></path>
<path d="M135.134 6.1078C134.474 6.1078 134.075 5.5494 134.075 4.72238C134.075 3.89535 134.457 3.34566 135.088 3.34566C135.599 3.34566 135.944 3.63419 136.046 4.21994H136.808C136.678 3.3183 135.981 2.73254 135.07 2.73254C134 2.73254 133.265 3.61553 133.265 4.72238C133.265 5.82922 134.009 6.71221 135.088 6.71221C136.009 6.71221 136.696 6.13516 136.837 5.24346H136.075C135.981 5.79191 135.628 6.1078 135.136 6.1078H135.134Z" fill="#C0CAC9"></path>
</svg>